<svg width="152" height="29" viewBox="0 0 152 29" fill="none" xmlns="http://www.w3.org/2000/svg">
<g filter="url(#filter0_d_515_8)">
<path d="M2.71023 2.99006V0.454545H14.6562V2.99006H10.2031V15H7.16335V2.99006H2.71023ZM20.6236 15V0.454545H23.6989V6.45597H29.9418V0.454545H33.0099V15H29.9418V8.99148H23.6989V15H20.6236ZM39.5455 15V0.454545H49.3466V2.99006H42.6207V6.45597H48.8423V8.99148H42.6207V12.4645H49.375V15H39.5455ZM55.7915 15V0.454545H58.8668V12.4645H65.1026V15H55.7915ZM74.2145 0.454545V15H71.1392V0.454545H74.2145ZM89.729 0.454545H92.8043V9.90057C92.8043 10.9612 92.551 11.8892 92.0444 12.6847C91.5425 13.4801 90.8394 14.1004 89.935 14.5455C89.0307 14.9858 87.9772 15.206 86.7745 15.206C85.5671 15.206 84.5112 14.9858 83.6069 14.5455C82.7025 14.1004 81.9994 13.4801 81.4975 12.6847C80.9956 11.8892 80.7447 10.9612 80.7447 9.90057V0.454545H83.82V9.63778C83.82 10.1918 83.9407 10.6842 84.1822 11.1151C84.4284 11.5459 84.774 11.8845 85.2191 12.1307C85.6642 12.3769 86.1826 12.5 86.7745 12.5C87.3711 12.5 87.8896 12.3769 88.3299 12.1307C88.775 11.8845 89.1183 11.5459 89.3597 11.1151C89.6059 10.6842 89.729 10.1918 89.729 9.63778V0.454545ZM102.609 15L98.4467 0.454545H101.806L104.214 10.5611H104.335L106.991 0.454545H109.867L112.516 10.5824H112.644L115.052 0.454545H118.411L114.249 15H111.252L108.482 5.49006H108.369L105.606 15H102.609ZM124.057 15V0.454545H133.858V2.99006H127.132V6.45597H133.354V8.99148H127.132V12.4645H133.887V15H124.057ZM143.379 0.454545V15H140.303V0.454545H143.379Z" fill="white"/>
</g>
<defs>
<filter id="filter0_d_515_8" x="0.710205" y="0.45459" width="150.668" height="27.7513" filterUnits="userSpaceOnUse" color-interpolation-filters="sRGB">
<feFlood flood-opacity="0" result="BackgroundImageFix"/>
<feColorMatrix in="SourceAlpha" type="matrix" values="0 0 0 0 0 0 0 0 0 0 0 0 0 0 0 0 0 0 127 0" result="hardAlpha"/>
<feOffset dx="3" dy="8"/>
<feGaussianBlur stdDeviation="2.5"/>
<feComposite in2="hardAlpha" operator="out"/>
<feColorMatrix type="matrix" values="0 0 0 0 0 0 0 0 0 0 0 0 0 0 0 0 0 0 0.25 0"/>
<feBlend mode="normal" in2="BackgroundImageFix" result="effect1_dropShadow_515_8"/>
<feBlend mode="normal" in="SourceGraphic" in2="effect1_dropShadow_515_8" result="shape"/>
</filter>
</defs>
</svg>
