<svg width="121" height="121" viewBox="0 0 121 121" fill="none" xmlns="http://www.w3.org/2000/svg">
<path fill-rule="evenodd" clip-rule="evenodd" d="M91.0224 120.252C107.59 120.11 120.906 106.565 120.765 89.9967L120.611 71.9974L102.94 72.1484C95.8054 72.2094 89.4533 67.6419 87.2398 60.8591L85.3943 55.2041C83.4625 49.2846 74.7144 50.7143 74.7676 56.9408C74.8405 65.4721 67.9836 72.4472 59.4523 72.5201L38.393 72.7001C32.556 72.75 26.9542 70.4029 22.8962 66.207C18.3998 61.5577 10.9265 61.6216 6.51014 66.347L0.612269 72.6577L0.76924 91.0224C0.910854 107.59 14.4566 120.906 31.0246 120.765L91.0224 120.252ZM0.489151 58.2538C8.91585 50.6237 22.0327 50.9296 30.0844 59.255C32.2377 61.4815 35.2102 62.727 38.3075 62.7005L59.3669 62.5205C62.3755 62.4948 64.7937 60.0349 64.768 57.0263C64.6171 39.3704 89.4232 35.3165 94.9009 52.1017L96.7464 57.7567C97.6075 60.3955 100.079 62.1725 102.854 62.1488L120.526 61.9977L120.252 29.9989C120.11 13.431 106.565 0.114806 89.9967 0.25642L29.9989 0.76925C13.431 0.910865 0.114796 14.4566 0.25641 31.0246L0.489151 58.2538Z" fill="black"/>
</svg>
