<?xml version="1.0" standalone="no"?><!DOCTYPE svg PUBLIC "-//W3C//DTD SVG 1.1//EN" "http://www.w3.org/Graphics/SVG/1.1/DTD/svg11.dtd"><svg t="1714096545725" class="icon" viewBox="0 0 1024 1024" version="1.1" xmlns="http://www.w3.org/2000/svg" p-id="2756" xmlns:xlink="http://www.w3.org/1999/xlink" width="200" height="200"><path d="M511.994158 73.133036a438.798219 438.798219 0 0 1 171.131305 843.22391A438.798219 438.798219 0 0 1 340.862853 107.505564 438.798219 438.798219 0 0 1 511.994158 73.133036m0-73.133036a511.931255 511.931255 0 0 0-198.921859 983.63934A511.931255 511.931255 0 0 0 710.916017 40.22317 511.931255 511.931255 0 0 0 511.994158 0z" fill="#1296db" p-id="2757"></path><path d="M511.994158 785.448811v-73.133036a200.38452 200.38452 0 0 0 78.252349-385.411102 201.11585 201.11585 0 0 0-155.773368 0A200.38452 200.38452 0 0 0 311.609638 511.931255h-73.133036a274.248887 274.248887 0 0 1 166.743323-252.308976 272.786226 272.786226 0 0 1 299.845449 58.506429A273.517556 273.517556 0 0 1 511.994158 785.448811z" fill="#1296db" p-id="2758"></path><path d="M511.994158 511.931255m-73.133037 0a73.133036 73.133036 0 1 0 146.266073 0 73.133036 73.133036 0 1 0-146.266073 0Z" fill="#1296db" p-id="2759"></path><path d="M292.595049 914.894286A552.885755 552.885755 0 0 1 490.054247 482.67804l44.611152 57.775099A487.797353 487.797353 0 0 0 365.728085 913.431625z" fill="#1296db" p-id="2760"></path></svg>